<svg version="1.1" xmlns="http://www.w3.org/2000/svg" xmlns:xlink="http://www.w3.org/1999/xlink" viewBox="0 0 200 200">
<g>
	<path fill="#9C9C9C" d="M86.3,165.6c0.5-2.7-0.1-5.2-1.1-7.7c0,0-2-5.6-2.2-4.2c0.4-2,0-0.8-1.4-2c-1-0.9,1.4-5.4,1.4-6.3
		c-3-0.6-1.7,0.7-2-3.1c-0.2-3.5-4.2-2.7-1.4-6.4c-2.5,0-4-1.5-4.7-3.8c0.1,0,0.6,2.2,0,0c1.7-0.3,3.5-0.1,1.8-2.3
		c-2.4-3-2.5-6.6-4.2-9.7c-0.8-0.3-1.2-0.9-1.4-1.6c0.3-0.8,2.8-0.8,2-1.9c-2.5-3.1-5.3-2.3-8.2-1c-4,1.8-1.4,0.6-2.8,4.2
		c-1,2.6-2.5,5.4-3.9,7.8c-1.3,2.3-0.5,8.6-2.1,9.8c-3.4,2.5,0.7,5.2-0.4,7.7c-0.7-0.2-0.9-1.9-1.8-1.6c-1,0.3-1.7,7.9-1.6,9.3
		c0.1,1.2,1.3,4.1,0.8,5.2c-0.3,0.8-2.9,1.8-3,2c-0.4,1.4,5.7,4.2,6.6,5.6c2.1,3.2,2.2,7.2,1.4,9.8c-1.4,4.2-12.3,4.7-16.6,5.5
		c-3.1,0.6-7.1,0.7-9.9-1.3c-2.3-1.6-5.7-5.9-3.6-8.6c-2.5,1-0.9,0.5-2.6-0.8c-2.2-1.8-2.7,2.1-1.2-2.8c0.8-2.7-0.3-5.4,0.1-8.2
		c0.6-4.1,1.2-7.7,0.6-11.9c-0.4-2.8-1-5.6-0.6-8.5c0.5-3.3,2.9-5.5,3.8-8.7c0.6-2.1-0.3-3.5-0.5-5.6c-0.3-3.5-0.9-5.2,0.5-8.6
		c0.9-2.3-1.6-2.4-1.3-3.9c0.5-3.7,0.9-5.4-0.3-9.1c-2.3-7-1.1-13.1-1.2-20.2C25.4,70,33.2,61.1,45.3,57c3-1,13.4,0.4,12.2-4.7
		c-0.5-2.3-3.7-1-4-2.8c-0.2-0.9,0-4.8,0.4-5c2.6-1.5,4.8-3.5,6.9-5.6c1.7-1.6,5.1-3.2,5.9-5.5c-0.5-1.2-3.9-3.6,0.1-3.5
		c0.7,0,8.1,0.5,8,0.6c1.2-1.1-0.4-4.7,2.8-2.7c1.6,1.1,6,0.6,8,1.1c2,0.4,3.5-0.6,5.3-1.2c2.5-0.7-0.1-3.1,2.5-3.9
		c2-0.6,3.5-1.6,3.4-3.9c0-2.7,4.2-0.9,5.3-2c0.5-0.8,0.9-1.5,1.3-2.3c1.2-1.5,2.5-0.6,4-1.2c2.5-1,1.8-4.5,5.4-3.4
		c0,0-4.1,2-2.1,2.6c2.5,0.8,3.2-3.6,5.5-2.8c-0.3-0.1,4.1,1.3,3.4,0.4c1.9,2.4,2.2,3.6,5.1,5.1c5.5,2.8,11.9,10.3,13.4,16.3
		c1.1,4.5,1.5,1.6,4.3,2.1c3.1,0.6,1.2,1.9,1.8,3.3c2.2-1.4,2.9,1.6,3.8,3.3c2,3.8,1.4,0.4,4.7-0.2c-1,4.3,1,0.5,2,2.8
		c0.5,1.3-0.8,3.1-1.5,4c2,0.3,2.6-1.5,4.2-2.1c0,0,0.4,4.2,1.1,2.7c0.6-1.3-0.1-1,1.2-2.5c0.5,2.7-1.2,5.3-0.9,8.2
		c0.3,3.3-2.6,2-3.1,3.8c0.9,1.5,6.1,0.6,4.8,3.4c-0.6,1.4,0.9,3-0.7,4.1c-0.4,0.3-1.7,1.3-1.6,1.9c1.1,6.7,1.9,15,0,21.9
		c-3.9-2.1-2.9,4.4-3.4,6.4c-0.9,3.2-2.5,8.3-4.3,10.4c-1.1,1.2-1.1,2.4-0.8,3.6c-0.2-0.7-2.9,6.3-2.9,6.3c-0.6-0.5-1-1.2-1.2-2
		c-4.5,3.2-4.6,14.8-4.9,19.7c-0.1,0.9-2,12.9-2.4,13c-0.4-0.2-0.8-0.6-1.1-1c-2,2.9,0.2,2.4-2.4,1.3c-0.9,1.6-1.4,9-0.2,10.4
		c1.1,1.2,2.7,1.5,3.3,3.2c0.5,1.4,0,3,0.7,4.3c1.8,3.8-0.2,3.3,3.2,3.6c4.3,0.4,9,1.1,8.6,6c-0.2,3.5-2,7.5-5.3,8.5
		c-8.3,2.6-26.2-6-26.2-6l-4.8,10.8c-2.6,5.3-9.7,3.2-14.2,3.9c-3,0.5-5.7-0.9-8.6-0.3c-4,0.9-5.8-3.8-6.4-6.4
		C83.8,180.3,85.4,170.4,86.3,165.6z M121.7,97.4c-3.9,0.9-6.8,3.5-8,7.4c-0.9,2.6,0.9,3.4,1.4,5.7c0.4,2.1-3.6,1.8-2.3,4
		c2.7,4.8,2.6,0.9,4.8-1.9C121.3,107.8,121.9,103.6,121.7,97.4C118.3,98.2,121.9,102.5,121.7,97.4z"/>
</g>
<path class="eye" fill="#006838" d="M126.1,43.2c2.4,0.4,3.9-0.9,4-3.1c0-0.2,0.4-0.7,0.9-0.9c0.3-0.2,0.7,0.1,1,0.1c0.3-0.2,0.6-0.4,0.8-0.6
	c-0.2-0.3-0.4-0.6-0.6-0.8c-0.2,0-0.7-0.1-1.3,0.1c-2.5,0.1-5.3,0.4-7.8,0.6c-0.8,0.1-1.3,0.3-1.8,0.5c-0.3,0.2-0.4,0.7-0.7,1.1
	c0.5,0.1,0.9,0.4,1.2,0.4c1-0.1,1.7,0.3,2.4,0.9C124.7,42.5,125.7,42.9,126.1,43.2z"/>
<path class="eye" fill="#006838" d="M107.1,42c2.3,1,4,0.1,4.6-2.1c0.1-0.2,0.5-0.6,1.1-0.6c0.3-0.1,0.7,0.3,0.9,0.4c0.3-0.1,0.6-0.3,1-0.4
	c-0.1-0.3-0.3-0.6-0.4-1c-0.2-0.1-0.7-0.3-1.2-0.3c-2.5-0.5-5.3-0.9-7.7-1.4c-0.8-0.1-1.3,0-1.9,0c-0.3,0.1-0.5,0.6-0.9,0.9
	c0.5,0.2,0.8,0.6,1,0.7c1,0.2,1.6,0.7,2.1,1.4C105.9,41,106.7,41.6,107.1,42z"/>
</svg>
