<svg version="1.1" xmlns="http://www.w3.org/2000/svg" xmlns:xlink="http://www.w3.org/1999/xlink" viewBox="0 13 200 172.4">
<path fill="#24D494" d="M200,99.9c0,8.5-3.3,16.3-8.8,22c-0.9,12.2-8.6,22.4-19.4,27v0.1c-13.1,7.6-20.9,20.7-23.3,36.3h-12.1v-36.3
	c0.1-11.3,3.6-18.5,11.1-23c2.7-1.6,5.2-3.4,7.3-5.3c5.5,2,10.4,5.9,13.5,11.4c0.6,1.1,1.8,1.7,3,1.7c0.6,0,1.1-0.1,1.7-0.4
	c1.7-0.9,2.2-3,1.3-4.6h0c-3.5-6.2-8.8-10.8-14.8-13.5c3.1-4.8,4.8-10.4,4.7-17.2c0,0,0-0.1,0-0.1c0-3.1-0.5-6.1-1.3-8.9
	c7.1-1.4,13.3-4.9,17.9-10c1.3-1.4,1.2-3.5-0.2-4.8c-1.4-1.3-3.5-1.1-4.8,0.2c-4,4.4-9.4,7.3-15.5,8.1c-4.9-9.1-14.1-15.6-24.8-16.8
	c0.7-5.8,3.3-11,7.3-14.9c1.3-1.3,1.3-3.5,0-4.8c-1.3-1.3-3.5-1.3-4.8,0c-5,5-8.4,11.8-9.2,19.2c-12.6-1.6-22.3-12.3-22.4-25.3
	c0-1.9-1.5-3.4-3.4-3.4c-1.9,0-3.4,1.5-3.4,3.4c0,2.2,0.2,4.3,0.6,6.4c-4.8,4.1-10.7,6.2-16.7,6.2c-2.9,0-5.9-0.5-8.7-1.5
	c0,0,0,0-0.1,0c-3.4-1.2-6.6-3.2-9.3-5.9c-1.3-1.3-3.5-1.3-4.8,0c-1.3,1.3-1.3,3.5,0,4.8c2.8,2.8,5.9,4.9,9.3,6.5
	c-0.7,8.4-5.6,15.7-12.4,19.8c-4-6-9.9-10.8-17.3-13.1c-1.8-0.6-3.7,0.4-4.3,2.2c-0.5,1.8,0.4,3.7,2.2,4.2c5.4,1.7,9.8,5.1,13,9.3
	c-2.1,0.6-4.3,0.9-6.6,0.9c0,0,0,0,0,0h-0.4c-8.7,0-16.7,3.5-22.5,9.1c-1.4,1.3-1.4,3.5-0.1,4.8c0.6,0.7,1.5,1,2.5,1
	c0.8,0,1.6-0.3,2.3-1c4.6-4.5,10.9-7.2,17.8-7.2h0.4h0h0c16.3,0,29.9-12.1,32-27.9c2.3,0.5,4.6,0.8,7,0.8c6.6,0,13.3-2.1,18.9-6.1
	c2.1,4.7,5.3,8.8,9.2,12c-4,5-6.4,10.8-7,16.9c-1.7-0.3-3.5-0.4-5.3-0.4c-5.1,0-10.3,1.2-15.1,3.8c-1.7,0.9-2.3,2.9-1.4,4.6
	c0.6,1.1,1.8,1.8,3,1.8c0.6,0,1.1-0.1,1.5-0.4c3.9-2,8-3,12-3c1.8,0,3.6,0.2,5.3,0.6c0.7,6.9,3.7,13.6,8.8,18.9c0.7,0.7,1.6,1,2.4,1
	c0.8,0,1.7-0.3,2.4-0.9c1.4-1.3,1.4-3.4,0.1-4.8h0c-4.5-4.8-6.9-10.9-7.1-17c0-0.1,0-0.2,0-0.3c0-0.1,0-0.2,0-0.4
	c0-6,2.1-11.9,6.2-16.6c4.3,2.1,9.2,3.4,14.4,3.4c0,0,0,0,0.1,0c0,0,0,0,0.1,0c14.1,0,25.4,11.4,25.5,25.5c-2.7-0.7-5.4-1.1-8.2-1.1
	c-4,0-8.1,0.7-12.1,2.4c-1.8,0.7-2.6,2.7-1.9,4.4c0.7,1.7,2.7,2.6,4.4,1.9c3.2-1.3,6.4-1.9,9.5-1.9c2.6,0,5.1,0.4,7.5,1.1
	c-0.8,3.8-2.5,6.8-5,9.5c-0.2,0.2-0.4,0.4-0.5,0.6c-1.9,1.9-4.2,3.6-7.1,5.4c-9.8,5.7-14.5,16.1-14.4,28.8v36.3h-11.6v-34.5
	c0-12.7-7.9-24.7-17.9-28.9c-4.8-1.9-9.7-5-13.4-9c-5.2,3.5-11.4,5.6-18,5.6c-6.7,0-12.9-2-18-5.5c-5.1,3.4-11.3,5.3-17.9,5.3
	C14.7,118.3,0,103.6,0,85.5C0,72,8.2,60.4,19.9,55.4c3.2-14.5,16-25.3,31.4-25.3c0.8,0,1.6,0.1,2.3,0.1c5.8-8.5,15.6-14.1,26.6-14.1
	c5.5,0,10.6,1.4,15.1,3.8c5.1-3.4,11.2-5.3,17.7-5.3c8.4,0,16.1,3.3,21.8,8.6c2.4-0.6,4.9-0.9,7.5-0.9c13,0,24.3,7.8,29.3,19
	c13.2,4,22.8,16.2,22.8,30.7c0,2.9-0.4,5.7-1.1,8.4C197.5,85.9,200,92.6,200,99.9z"/>
</svg>
