<svg version="1.1" xmlns="http://www.w3.org/2000/svg" xmlns:xlink="http://www.w3.org/1999/xlink" viewBox="0 0 70 47.787">
<path fill="#114F5F" d="M48.34,26.977"/>
<path fill="#114F5F" d="M39.114,47.214c-0.298-0.926-2.031-1.854-2.69-2.588c0.815,0.183,1.643,0.44,2.488,0.348
	c1.146-0.124,0.61-0.913-0.088-1.221c-1.664-0.735-3.751-1.405-4.412-3.304c1.826-0.022,3.605,0.519,5.43,0.519
	c1.741,0,3.433-0.116,5.136-0.488c1.157-0.253,2.313-0.62,3.488-0.721c0.941-0.048,1.21,0.389,1.919,0.978
	c3.142,2.616,5.968,4.252,10.18,4.399c0.541,0.018,3.949,0.442,3.234-0.846c-0.771-1.414-2.633-1.243-3.441-2.5
	c0.999,0,2.751,0.085,3.529-0.632c0.927-0.864-2.261-1.577-2.664-1.676c-1.524-0.374-3.035-0.799-4.549-1.21
	c2.189,0,4.379,0,6.568,0c0.95,0,1.767-0.083,2.716-0.26c0.982-0.179,2.2-0.251,3.075-0.779c1.259-0.744,0.133-1.474-0.729-1.452
	c-4.755,0.113-9.774-0.002-14.147-2.097c-3.77-1.826-6.969-4.604-10.801-6.334c-4.802-2.173-9.851-3.1-15.064-2.228
	c-1.989,0.333-4.578,1.407-6.401,0.38c-3.215-1.811-8.726-7.348-10.081-10.78c-1.097-2.78-1.783-5.782-2.552-8.665
	c-0.515-1.929-1.265-3.972-2.651-5.21c-1.268-1.133-2.619-0.93-4.057-0.531C2.026,0.461-0.932,1.15,0.296,2.115
	c0.82,0,1.701,0.078,2.496,0.329c-0.528,0-1.932-0.33-2.36,0c-0.103,0-0.165,0.249-0.136,0.342c0.168,0.291,0.241,0.166,0.602,0.241
	c0.796,0.164,1.437,0.723,2.134,1.166C3.777,4.668,4.58,4.573,5.326,4.976c0.649,0.349,0.923,1.337,1.121,2.09
	c1.048,3.998,0.311,8.625,5.174,15.762c2.526,3.707,3.859,6.958,6.158,9.095c0.578,0.537,2.699,2.692,3.958,3.388
	c1.331,0.74,2.054,1.165,2.214,2.766c0.168,1.535,0.551,2.834,1.889,3.75c1.345,0.921,2.967,1.32,4.349,2.194
	c1.604,1.015,3.107,2.22,4.837,3.022C35.386,47.209,39.578,48.521,39.114,47.214"/>
</svg>
