<svg version="1.1" xmlns="http://www.w3.org/2000/svg" xmlns:xlink="http://www.w3.org/1999/xlink"
	 viewBox="53.4 0 236.4 211.2">
<path id="path3885-6" fill="#00BDA6" d="
	M154.2,130.8c11.3,10.4-5.7,24.1,1.5,37.9c4.5,8.5-12.8,4.5-16.8,10.4c-3.7,5.4-6.8,8.6-1.5,16.2c8.2,4.4,22.4-2,26.3-3.8
	c7.4-3.4,9.4-6.8,14.3-14.3c1.1-1.7,4.2-15.3,8.3-9.2c3.9,5.9-3.6,14.6,1.3,20.9c5.1,6.6-5.9,5.9-9.2,5.3c-5.7-1-10.6,4.1-10.9,9.8
	c-0.6,8.9,22.1,6,26.3,4.2c5.9-2.6,13.2-2.7,17.2-8.5c3-4.3,2.5-5,8.3-4.7c9,0.6,16.2,2.2,25.5,1.4c9.1-0.7,19-2,28,0
	c3.1,0.7,11.6,3.9,14.8,1.7c3.5-2.5-8.6-7.6-9.5-8c-7.9-3.6-43.9-4.2-44.6-14.3c-1.1-15.2,8.1-28.7,3.9-44.8
	c-2-7.8,0.8-16.1-1.6-24.3c-2.7-9.4-8.1-15.7-12.9-23.7c-8.8-14.8-19-23.5-31.4-35.4c-5.7-5.4-11-11.2-17.1-16.1
	c-8.1-6.5-18.1-6.3-27.2-10.3c-6.3-2.7-14.7-9.7-21.6-10.1c-3.8-0.2-1.7-1.5-3.4-3.4c-2.1-2.3-8.3-1.8-11.2-3
	c-7.9-3.2-15.7-4.5-24.2-3.9C80.4,1.1,68,2.5,62.4,5.4c-5.9,3.1-3.7,12.2-0.8,16.5c4.3,6.4,10.6,9.3,18.1,10
	c3.1,0.3,7.1-0.5,10.1,0.4c2.9,0.9,4.6,3.7,7.7,4.7c3.6,1.1,7,0.3,9.7,3.4c2.7,3.1-1.5,6.9-2.1,10.2c-1.9,10.6,3.2,23.1,0,33.2
	c-2.4,7.6-9.5,7.7-15.9,9.9c-4.3,1.5-11.5,10-13.5,9.9c-5.2-0.4-3.3,3.5-7.4,4.4c-2.5,0.5-7.6,1.3-9.2,3.4c-1.3,1.8,0.3,3.3-0.5,4.9
	c-0.4,0.9-3,2-3.1,2.4c-2.8,11.9,11.6,15.4,21.2,14.2c-0.7-0.3-1.4-0.7-2.1-1c5.1-1.4,8.6-4.7,13.3-5.2c2.7-0.3,2.3,9.9,6,0
	c2.1-2,4.1-4.9,6.5-7.2c5.3-5,12.3-8.2,17.2-13.3c2.8-2.9,6.5-3.6,9-6.1c3-3.1,1.5-9.8,3.8-13.8c1.7,7.9,6,7.6,1.1,14.6
	c-2.5,3.6-8.6,12.3-5.1,15.4c-8.8,12.8-9.8,24.2-10.6,38.1c3.2-4.7,11.8-10.3,17-9.1C141.3,147.3,151.4,138.2,154.2,130.8z"/>

	<path fill="#076458" class="eye" d="M81.7,6.5
	C82.6,6.4,83.5,6,84.5,6s2.1,0.3,3,0.8c0.5,0.3,1,0.7,1.3,1.2s0.8,1,0.7,1.6c-0.1,0.5-0.6,0.8-1,1.2c-0.7,0.7-1.5,1.3-2.5,1.6
	c-0.5,0.2-1.1,0.1-1.7,0c-0.7-0.2-1.4-0.6-2-1.1s-1-1.1-1.4-1.8c-0.3-0.5-0.6-1-0.7-1.5C80.1,7.6,80,6.8,80,6.8S81.2,6.6,81.7,6.5z"
	/>

	<path fill="#076458" class="eye" d="M121,148.9
	c0,0,2.8-0.6,4.2-1.2c1.6-0.6,3.2-1.4,4.6-2.4c1.4-1,2.6-2.3,3.8-3.6c1.1-1.3,2.8-2.6,2.9-4.4c0.1-0.7-0.4-1.5-0.9-2
	c-0.6-0.5-1.4-0.7-2.2-0.8c-0.7-0.1-1.5-0.1-2.1,0.2c-0.8,0.3-1.4,1-2,1.6c-1.3,1.4-2.2,3.2-3.3,4.8c-1.2,1.7-2.8,3.2-3.8,5.1
	C121.6,147.1,121,148.9,121,148.9L121,148.9z"/>

	<path fill="#076458" class="eye" d="M57.2,124.4
	c0.6-0.5,1-0.7,1.7-0.8c1-0.2,1.9,0,2.8,0.5c0.8,0.4,1.5,1,2.1,1.6c0.9,0.8,1.6,1.7,2.6,2.3c1.6,1.1,2.2,1.6,3.9,2.5
	c1.1,0.6,3.6,1.4,4.7,1.9c0.6,0.3,1.9,0.5,1.9,0.5s-5.3,0.2-7.9-0.2c-2.1-0.3-4.1-1-6.1-1.7c-1.5-0.5-3-1-4.3-1.9
	c-0.7-0.4-1.2-1-1.7-1.6c-0.3-0.4-0.6-0.7-0.7-1.4C56.2,124.8,57,124.6,57.2,124.4L57.2,124.4z"/>

	<path fill="#076458" class="eye" d="M62.8,123.9
		c-0.6-0.8-1.4-1.5-1.7-2.4c-0.3-1-0.2-1.5,0-2.5c0.2-0.6,0.5-1.3,1-1.7c0.7-0.5,1.6-0.8,2.4-0.7c1,0.1,1.5,0.6,2.2,1.3
		c0.7,0.8,1.1,1.6,1.6,2.5c1.2,1.8,2.2,3.8,3.8,5.2c2,1.7,6.2,4.9,6.2,4.9s-3.1,0.3-5.5,0c-1.7-0.2-4.3-1.1-5.7-2.1
		C65.4,127.3,64.1,125.5,62.8,123.9L62.8,123.9z"/>
	<path fill="#076458" class="eye" d="M116.1,153.9
		c0,0,0.3-2.9,0.4-4.4c0.2-1.3,0.3-2.6,0.6-3.8c0.4-1.6,1-3.1,1.8-4.6c1.6-3,3.4-6.1,5.9-8.4c0.4-0.4,0.9-0.8,1.4-0.8
		c0.9,0,1.9,0.5,2.4,1.2c0.5,0.8,0.4,1.9,0.2,2.9c-0.4,1.7-1.7,3-2.7,4.4c-1.3,1.9-2.9,3.5-4.2,5.4c-0.8,1.1-1.5,2.3-2.3,3.5
		C118.5,150.9,116.1,153.9,116.1,153.9L116.1,153.9z"/>
	<path fill="#076458" class="eye" d="M70.7,109.2
		c-0.7,1-0.4,2.5-0.3,3.7c0.1,1.3,0.8,3.9,0.8,3.9s0.6-2.4,1-3.5c0.3-0.9,1.2-1.5,1.3-2.5c0-0.6-0.3-1.3-0.7-1.7
		c-0.3-0.3-0.7-0.5-1.1-0.4C71.3,108.7,70.9,108.9,70.7,109.2L70.7,109.2z"/>
	<path fill="#076458" class="eye" d="M115.8,144.8l0.6-4.5l1.5-4l1.4-1.8h1.5l0.9,0.8l-0.1,1.3
	l-3,5.6l-1.5,2.5L115.8,144.8z"/>
</svg>
