<svg version="1.1" xmlns="http://www.w3.org/2000/svg" xmlns:xlink="http://www.w3.org/1999/xlink" viewBox="39.5 0 120.5 200">
<g>
	<path fill="#99D5CE" d="M50,114.4c-1.2,0-2.2-1-2.2-2.2c0-28.8,23.3-52.3,52-52.3c1.2,0,2.2,1,2.2,2.2s-1,2.2-2.2,2.2
		c-26.2,0-47.6,21.5-47.6,47.9C52.2,113.4,51.3,114.4,50,114.4z"/>
	<path fill="#99D5CE" d="M58,115.2"/>
	<path fill="#99D5CE" d="M55.4,129.8c-5.6,0-10.3-4.7-10.3-10.3c0-5.6,4.7-10.3,10.3-10.3s10.3,4.7,10.3,10.3
		C65.8,125.2,61.1,129.8,55.4,129.8z M55.4,113.9c-3,0-5.5,2.5-5.5,5.5c0,3,2.5,5.5,5.5,5.5c3,0,5.5-2.5,5.5-5.5
		C61,116.4,58.5,113.9,55.4,113.9z"/>
	<path fill="#99D5CE" d="M91.7,185.4c-0.2,0-0.4,0-0.6-0.1c-20.9-5.4-35.2-15-42.4-28.4c-9-16.7-3.5-33-3.3-33.7
		c0.4-1.1,1.6-1.8,2.8-1.4c1.1,0.4,1.8,1.6,1.4,2.8c-0.1,0.2-5.1,15.3,3,30.3c6.6,12.2,19.9,21,39.6,26.1c1.2,0.3,1.9,1.5,1.6,2.7
		C93.5,184.8,92.7,185.4,91.7,185.4z"/>
	<path fill="#99D5CE" d="M99.4,197.6c-2.1,0-4.2-2.1-6.8-6.8c-3.6-6.5-10.1-23.5-11.2-32.7c-1.1-9.2,1.7-13,5.1-17.3l0.6-0.7
		c2.7-3.5,2.8-4.2,3.5-9c0.1-0.8,0.3-1.8,0.4-2.9c1.5-8.9,7.9-10.2,8.2-10.2c1.2-0.2,2.3,0.6,2.6,1.8c0.2,1.2-0.6,2.3-1.7,2.6
		c-0.2,0.1-3.8,1-4.7,6.6c-0.2,1.1-0.3,2-0.4,2.8c-0.8,5-1,6.5-4.4,11l-0.6,0.8c-3.2,4.2-5.1,6.7-4.2,14.1
		c1.1,8.4,7.2,24.9,10.7,31.1c1.8,3.2,2.8,4.2,3.2,4.5c1.3-0.1,2.3,0.9,2.3,2.2c0,1.1-0.8,2-1.8,2.2
		C99.9,197.5,99.7,197.6,99.4,197.6z"/>
	<path fill="#99D5CE" d="M93,155.1c-0.5,0-1-0.2-1.4-0.5l-3.3-2.7c-0.9-0.8-1.1-2.2-0.3-3.1c0.8-0.9,2.2-1.1,3.1-0.3l3.3,2.7
		c0.9,0.8,1.1,2.2,0.3,3.1C94.3,154.8,93.7,155.1,93,155.1z"/>
	<path fill="#99D5CE" d="M87.8,143.5c-0.5,0-1-0.2-1.3-0.6c-13.1-14.7-19.7-23-20.6-30.5c-0.9-7.3,3.2-11.7,3.5-11.9
		c0.5-0.5,1.1-0.6,1.8-0.5s1.1,0.7,1.2,1.3c3.8,17.4,18.7,34.6,18.8,34.7c0.6,0.8,0.5,1.9-0.3,2.5c-0.8,0.6-1.9,0.5-2.5-0.3
		c-0.6-0.7-13.3-15.2-18.4-32c-0.5,1.5-0.8,3.3-0.6,5.7c0.8,6.6,7.2,14.7,19.7,28.6c0.6,0.7,0.6,1.9-0.2,2.5
		C88.6,143.3,88.2,143.5,87.8,143.5z"/>
	<path fill="#99D5CE" d="M76.5,179.6c-0.7,0-1.3-0.3-1.8-0.9c-2.9-3.9-5.3-11.8-7.2-18.1c-0.7-2.3-1.3-4.3-1.7-5.4
		c-1.6-4-4.3-6.4-4.4-6.4l-0.1-0.1L45,132.9c-0.9-0.8-0.9-2.2-0.1-3.1c0.8-0.9,2.2-0.9,3.1-0.1l16.4,15.7c0.5,0.5,3.7,3.4,5.6,8.2
		c0.5,1.3,1.1,3.4,1.8,5.8c1.6,5.4,4.1,13.5,6.5,16.7c0.7,1,0.5,2.3-0.4,3.1C77.4,179.4,77,179.6,76.5,179.6z"/>
	<path fill="#99D5CE" d="M77.5,32.4"/>
	<path fill="#99D5CE" d="M98.5,63.2c-0.7,0-1.3-0.3-1.8-0.9L76.3,34.5c-2.4-0.2-8.5-0.6-14.4-1.2c-1.1-0.1-2-1-2-2.1
		c0-0.3-0.2-8.5,5.5-13.4c3.7-3.1,8.8-4.1,15.2-2.8c1.2,0.2,2,1.4,1.7,2.5l-2.5,14.4l20.4,27.8c0.7,1,0.5,2.3-0.5,3.1
		C99.4,63,98.9,63.2,98.5,63.2z M64.4,29.1c4.5,0.4,8.9,0.8,11.3,0.9l2-11.1c-4-0.4-7.2,0.3-9.4,2.2C65.7,23.4,64.8,27,64.4,29.1z"
		/>
	<path fill="#99D5CE" d="M99.8,64c-1.2,0-2.2-1-2.2-2.2V22.2c-1.8-1.5-6.4-5.5-10.9-9.5c-0.8-0.7-1-2-0.3-2.9
		c0.2-0.3,4.9-7,12.4-7.5c4.8-0.3,9.5,1.9,14,6.7c0.8,0.9,0.8,2.3-0.1,3.1L102,22.2v39.6C102,63,101,64,99.8,64z M91.2,10.8
		c3.4,3,6.7,5.9,8.5,7.4l8.2-7.8c-3-2.7-6-4-8.9-3.8C95.5,6.9,92.8,9.2,91.2,10.8z"/>
	<path fill="#99D5CE" d="M149.4,114.4c-1.2,0-2.2-1-2.2-2.2c0-26.4-21.3-47.9-47.6-47.9c-1.2,0-2.2-1-2.2-2.2s1-2.2,2.2-2.2
		c28.7,0,52,23.5,52,52.3C151.6,113.4,150.6,114.4,149.4,114.4z"/>
	<path fill="#99D5CE" d="M141.6,115.2"/>
	<path fill="#99D5CE" d="M144.1,129.8c-5.6,0-10.3-4.7-10.3-10.3c0-5.6,4.7-10.3,10.3-10.3c5.6,0,10.3,4.7,10.3,10.3
		C154.5,125.2,149.8,129.8,144.1,129.8z M144.1,113.9c-3,0-5.5,2.5-5.5,5.5c0,3,2.5,5.5,5.5,5.5s5.5-2.5,5.5-5.5
		C149.7,116.4,147.2,113.9,144.1,113.9z"/>
	<path fill="#99D5CE" d="M107.8,185.4c-1,0-1.9-0.7-2.1-1.6c-0.3-1.2,0.4-2.4,1.6-2.7c19.7-5.1,33-13.9,39.6-26.1
		c8.1-15,3.1-30.1,3-30.3c-0.4-1.1,0.2-2.4,1.4-2.8c1.1-0.4,2.4,0.2,2.8,1.4c0.2,0.7,5.7,17-3.3,33.7c-7.2,13.4-21.5,22.9-42.4,28.4
		C108.2,185.4,108.1,185.4,107.8,185.4z"/>
	<path fill="#99D5CE" d="M100,197.6c-0.3,0-0.5,0-0.8-0.1c-1-0.2-1.8-1.1-1.8-2.2c0-1.2,1-2.2,2.2-2.2h0.1c0.4-0.3,1.4-1.3,3.2-4.5
		c3.5-6.3,9.7-22.7,10.7-31.1c0.9-7.4-1-9.9-4.2-14.1l-0.6-0.8c-3.4-4.4-3.6-5.9-4.4-11c-0.1-0.8-0.3-1.8-0.4-2.8
		c-0.9-5.8-4.7-6.6-4.7-6.6c-1.2-0.2-2-1.4-1.8-2.6c0.2-1.2,1.4-2,2.6-1.8c0.3,0.1,6.8,1.4,8.2,10.2c0.2,1.1,0.3,2,0.4,2.9
		c0.7,4.7,0.8,5.4,3.5,9l0.6,0.7c3.4,4.4,6.2,8.1,5.1,17.3c-1.2,9.2-7.6,26.2-11.2,32.7C104.2,195.5,102.2,197.6,100,197.6z"/>
	<path fill="#99D5CE" d="M106.4,155.1c-0.6,0-1.3-0.3-1.7-0.8c-0.8-0.9-0.6-2.3,0.3-3.1l3.3-2.7c0.9-0.8,2.3-0.6,3.1,0.3
		c0.8,0.9,0.7,2.3-0.3,3.1l-3.3,2.7C107.4,154.9,106.9,155.1,106.4,155.1z"/>
	<path fill="#99D5CE" d="M111.7,143.5c-0.4,0-0.8-0.2-1.2-0.5c-0.7-0.6-0.8-1.8-0.2-2.5c12.5-13.9,18.9-22,19.7-28.6
		c0.2-2.3-0.1-4.2-0.6-5.7c-5.1,16.8-17.8,31.2-18.4,32c-0.6,0.8-1.7,0.9-2.5,0.3c-0.8-0.6-0.9-1.7-0.3-2.5
		c0.2-0.2,15-17.4,18.8-34.7c0.2-0.6,0.6-1.1,1.2-1.3c0.6-0.2,1.3,0,1.8,0.5c0.2,0.2,4.3,4.6,3.5,11.9c-0.9,7.5-7.4,15.9-20.6,30.5
		C112.7,143.2,112.2,143.5,111.7,143.5z"/>
	<path fill="#99D5CE" d="M122.9,179.6c-0.5,0-0.9-0.1-1.3-0.4c-1-0.7-1.2-2.1-0.4-3.1c2.5-3.3,4.9-11.4,6.5-16.7
		c0.7-2.4,1.3-4.4,1.8-5.8c1.9-4.8,5-7.7,5.6-8.2l16.4-15.7c0.9-0.8,2.3-0.8,3.1,0.1c0.8,0.9,0.8,2.3-0.1,3.1L138,148.6l-0.1,0.1
		c0,0-2.8,2.4-4.4,6.4c-0.4,1.2-1,3.1-1.7,5.4c-1.9,6.3-4.3,14.2-7.2,18.1C124.2,179.3,123.7,179.6,122.9,179.6z"/>
	<path fill="#99D5CE" d="M121.9,32.4"/>
	<path fill="#99D5CE" d="M100.9,63.2c-0.5,0-0.9-0.1-1.3-0.4c-1-0.7-1.2-2.1-0.5-3.1l20.5-27.8l-2.6-14.4c-0.2-1.2,0.6-2.3,1.7-2.5
		c6.4-1.2,11.6-0.3,15.2,2.8c5.7,4.8,5.5,13,5.5,13.4c0,1.1-0.9,2-2,2.1c-5.9,0.6-12,1-14.4,1.2l-20.3,27.8
		C102.3,62.9,101.7,63.2,100.9,63.2z M121.8,19l2,11.1c2.4-0.2,6.7-0.5,11.3-0.9c-0.3-2.2-1.2-5.7-3.9-8
		C128.9,19.3,125.8,18.5,121.8,19z"/>
	<path fill="#99D5CE" d="M99.7,64L99.7,64c-1.2,0-2.2-1-2.2-2.2V22.2L86.8,12.1c-0.9-0.8-0.9-2.2-0.1-3.1c4.4-4.8,9.1-7.1,14-6.7
		c7.5,0.5,12.2,7.2,12.4,7.5c0.6,0.9,0.5,2.1-0.3,2.9c-4.4,4-9.1,8-10.9,9.5v39.6C101.8,63,100.8,64,99.7,64z M91.5,10.5l8.2,7.8
		c1.8-1.6,5.1-4.4,8.5-7.4c-1.5-1.7-4.3-4-7.9-4.3C97.4,6.4,94.5,7.7,91.5,10.5z"/>
</g>
</svg>
