<svg version="1.1" xmlns="http://www.w3.org/2000/svg" xmlns:xlink="http://www.w3.org/1999/xlink" viewBox="3.2 10.5 92.9 85.5">
<g>
	<g>
		<path d="M23.9,24.1v7.3l0.1,1.4c1.6,1.4,2.8,5.3,2.7,10c0,4.4-1.3,8.5-2.8,10l0,2v10.3l9.6-1.8V16.6
			C33.5,16.6,23.7,21.3,23.9,24.1z"/>
	</g>
</g>
<path d="M17.7,96c0,0,78.5,0,78.5,0V70.6c0,0,0.5-4.2-3.5-4.5l-75-1V96z"/>
<path d="M6.4,67c-2.6,5.5-2,29-2,29s11.9,0,11.9,0V65C16.2,65,7.5,64.5,6.4,67z"/>
<path d="M78.8,16.3l-37.2-1.8c0,0-5.8-0.8-6.3,4.5v41.5v2.8l48.3,1V21.8C83.6,21.8,81.6,16.6,78.8,16.3z M45,43.8
	c-3.8,0-6.8-3.1-6.8-6.8c0-3.8,3-6.8,6.8-6.8c3.8,0,6.8,3,6.8,6.8C51.8,40.8,48.8,43.8,45,43.8z M74.5,43.8c-3.8,0-6.8-3.1-6.8-6.8
	c0-3.8,3-6.8,6.8-6.8c3.8,0,6.8,3,6.8,6.8C81.3,40.8,78.3,43.8,74.5,43.8z"/>
</svg>
