<svg version="1.1" xmlns="http://www.w3.org/2000/svg" xmlns:xlink="http://www.w3.org/1999/xlink" viewBox="0 55.5 200 74.3">
<g transform="translate(-3.6879969,358.10669)">
	<path fill="#2BB673" d="M81.8-301.2c-6.8-0.3-11.2,1.6-17,5.3c-2.5,1.7-4.7,3.8-6.5,6.2c-1.4,1.9-3,3.7-4.6,5.4
		c-0.9,1-1.7,2.1-2.8,2.9c-0.7,0.5-1.6,0.7-2.3,1.3c-0.6,0.4-1.3,0.3-1.9,0.4c-0.9,0-1.6-0.4-2.4-0.6c-1.3-0.3-2.3-1.1-3.4-1.7
		c-0.8-0.5-1.7-1-2.7-1.2c-1.8-0.5-3.6-1-5.5-1.2c-1.4-0.2-2.8,0.1-4.2,0.2c-1,0.1-2,0.4-3,0.1c-0.5-0.2-0.9-0.9-1.5-0.8
		c-0.7,0.1-1.5,0.6-2.2,0.5c-0.7,0-1.2-0.6-1.8-0.8c-0.2-0.1-0.4-0.3-0.6-0.2c-0.3,0.2-0.7,0.5-0.9,0.8c-0.1,0.2,0.1,0.5,0,0.7
		c-0.2,0.2-0.7,0.5-1,0.5c-1.2,0.1-2.5,0.1-3.8,0.3c-2,0.3-4,0.5-6,0.7c-0.6,0-1.4,0-1.7,0.4c-0.3,0.4-0.7,1-0.6,1.5
		c0.1,0.6,0.6,1.3,1.3,1.5c0.1-0.1,0-0.6,0.1-0.8c0.1-0.3,0.1-0.9,0.3-1c0.6-0.2,1.5-0.1,2.2,0c0.2,0,0.2,0.4,0.4,0.5
		c0.1,0,0.5-0.4,0.4-0.1s-0.2,0.6-0.3,1c0.2-0.1,0.4-0.2,0.6-0.3c0.1,0.4,0.1,0.8,0.2,1.2c0.2-0.6,0.4-1.2,0.7-1.7
		c0.2,0.4,0.5,0.8,0.7,1.2c0-0.3,0-0.6,0-0.9c0.2,0.1,0.5-0.1,0.5,0.1s0,0.5,0,0.7c0.2-0.1,0.4-0.2,0.5-0.4c0-0.2-0.4-0.4-0.1-0.5
		c0.1-0.1,0.5-0.4,0.4-0.1c0,0.2-0.1,0.6,0.2,0.3c0.2-0.2,0.4-0.3,0.6-0.5c0,0.2,0,0.5,0,0.7c0.2-0.3,0.3-0.5,0.5-0.8
		c0.2,0.3,0.3,0.5,0.5,0.8c0.1-0.2,0.3-0.4,0.4-0.5c1.1,0,2.3-0.2,3.2,0c0.2,0,0.3,0.5,0.2,0.6c-0.2,0.2-0.6,0.4-1,0.5
		c-1.7,0.2-3.5,0.2-5.1,0.8c-0.2-0.1-0.4-0.4-0.3,0c0.1,0.3,0,0.4-0.3,0.3c-0.8,0-1.7,0.2-2.5,0.3c0-0.1,0.1-0.6-0.1-0.5
		c-0.3,0.1-0.5,0.2-0.8,0.3c0.1-0.3,0.2-0.6,0.3-0.9c-0.4-0.1-0.6,0.3-0.7,0.6c-0.1,0,0-0.4,0-0.5c0.1-0.3-0.1-0.4-0.4-0.3
		c-0.2,0-0.2,0.3-0.3,0.5c-0.1,0.2-0.1,0.6-0.1,0.2c0-0.2,0-0.5,0-0.7C7.4-279,7-279.2,7-279c0.1,0.3,0.2,0.6,0.3,0.9
		c-0.3-0.1-0.5-0.2-0.8-0.3c-0.1,0.8-0.1,1.8,0.5,2.5c0.2,0.2,0.3,0.2,0.5,0.2c1.1-0.2,2.2-0.5,3.3-0.5c1.2-0.1,2.4-0.2,3.5,0
		c1.7,0.3,3.2,1,4.8,1.6c1.5,0.5,3,0.9,4.6,1.2c1.5,0.3,3,0.2,4.5,0.2c1.1,0,2.4-0.2,3.5,0.3c0.8,0.4,1.5,1.1,2.3,1.5
		c0.9,0.4,1.7,1,2.7,1.3c2.9,0.9,6.1,0.7,8.9,2.2c1,0.5,1.6,1.5,2.3,2.4c1.5,2,3,4.1,4.3,6.3c0.4,0.7,0.7,1.4,1,2.1
		c-0.5,0.7-0.9,1.5-1.3,2.3c-1.2,1.1-2.3,2.3-3.5,3.4c-1.2,0.6-2.5,1.3-3.7,1.9c-0.8,0-1.5,0-2.3,0c0.2,0.2,0.4,0.4,0.6,0.6
		c1.5,0,3,0,4.4-0.4c0.4-0.2,0.1,0.1-0.1,0.3c-0.4,0.4-0.8,0.8-1.1,1.2c-0.6,1.1-1.2,2.2-2,3.2c-0.3,0.4-0.6,0.9-0.9,1.3
		c0.5,0.1,0.7-0.4,1.1-0.7c1.1-0.9,2.1-2,3.2-2.9c0.7-0.1-0.1,0.8-0.2,1.1c-0.3,0.6-0.7,1.2-1.1,1.7c0.2,0.2,0.3,0.4,0.5,0.1
		c0.6-0.6,1.3-1.2,1.9-1.8c0.5-0.8,1.1-1.7,1.6-2.5c0.6-0.5,1.2-1,1.8-1.6c0.4-0.5,0.8-1.1,1.2-1.6c0.7-0.7,1.5-1.3,2.2-2
		c0,0.4,0.1,0.8,0.2,1.1c-0.4,1.1-0.8,2.2-1.1,3.4c-1.2,1.1-2.3,2.2-3.1,3.6c-0.2,0.3-0.3,0.6-0.6,0.7c-0.6,0.3-1.1,0.7-1.7,1
		c0.2,0,0.4,0.2,0.6,0.2c1.3-0.7,2.7-1.4,3.8-2.3c0.3-0.2,0.9-0.7,0.7,0c-0.1,0.7-0.3,1.5-0.5,2.2c-0.2,0.3-0.5,0.5-0.6,0.8
		c-0.1,0.7-0.2,1.4-0.3,2.1c-0.3,0.6-0.7,1.1-0.8,1.8c0.2,0.2,0.6-0.5,0.7-0.6c0.7-1,1.5-1.9,2.1-3c0.1-0.4,0.5-0.5,0.8-0.6
		c-0.1,0.9-0.1,1.9-0.5,2.7c0.3,0,0.7-0.8,1-1.1c0.3-0.5,0.7-1,1-1.5c0.1-0.7,0.2-1.4,0.3-2.1c0.3-0.5,0.7-0.9,1-1.4
		c0.1-0.9,0.2-1.8,0.3-2.8c0.5-0.2,0.4-0.7,0.6-1.1c0.7-1.6,1.6-3.1,2.4-4.6c0.1-1,0.2-1.9,0.4-2.9c0.4,0,0.8,0.1,1.3,0
		c0.5-0.1,1,0.1,1.5,0.2c1,0.2,2,0.4,2.9,0.7c0.6,0.2,1.2,0.1,1.8,0.1c1.2,0,2.4,0.2,3.5,0.7c0.6,0.3,0.3,1,0.3,1.5
		c-0.1,0.7-0.3,1.4-0.7,1.9c-0.5,0.5-0.6,1.2-0.4,1.8c0.3,1,0.1,2,0.5,3c0.6,1.7,1.1,3.4,1.8,5c0.3,0.7,0,1.6,0.1,2.3
		c0.1,1.4-0.7,2.7-0.9,4.1c-0.1,0.8-0.3,1.5-1,2.1c-0.4,0.4-0.8,0.8-1.4,1.1c-0.9,0.4-1.7,0.8-2.6,1.1c-0.6,0.2-1.2,0.7-0.9,1.2
		c0.3,0.5,1.4,0.2,2,0.2c1.7,0,3.5-0.3,5.2-0.3c0.6,0,1.2-0.1,1.8-0.4c0.7-0.3,0.5-1.1,0.6-1.6c0.1-0.4,0.2-1.7,0.7-1
		c0.3,0.4,0.9,1.5,1,0.5c0.1-0.9-0.4-1.7-0.5-2.6c0-1.1-0.2-2.3,0.1-3.4c0.3-1.1,0.5-2.1,0.8-3.2c0.2-0.6,0.1-1.2-0.2-1.7
		c-0.3-0.7-0.7-1.4-0.5-2.2c0.2-1,0.1-2,0.5-3s0.9-2,0.9-3.1c0-0.5,0-1.1,0.1-1.6c0.2-0.8,0.5-1.7,1.3-1.9c0.8-0.2,1.5,0.6,1.9,1.2
		c1,1.3,1.5,2.9,2.6,4.1c1.3,1.3,2.9,2.3,4.5,3.3c1.4,0.8,3.1,1.1,4.2,2.3c0.5,0.6,0.8,1.3,1.3,1.8c0.9,1.1,1.7,2.2,2.1,3.6
		c0.3,1.1,0.7,2.3,0.6,3.5c-0.1,0.7-0.5,1.2-0.6,1.9c-0.2,0.8-1.1,1.1-1.6,1.7c-0.4,0.5-1,0.6-1.6,0.7c-0.8,0.2-1.5,0.6-2.2,0.9
		c-0.6,0.2-0.3,1,0.3,0.8c0.9-0.3,1.8,0.1,2.7,0.3c1.6,0.3,3.1-0.2,4.7-0.3c0.6,0,1.1-0.2,1.6-0.6c0.4-0.5,0.4-1.2,0.4-1.8
		c0-0.7,0.1-1.5,0.3-2.2c0.2-0.9,1.1,0,1.6-0.1s-0.2-1.1-0.4-1.5c-0.4-0.9-1-1.7-1.3-2.6c-0.4-1.3-0.8-2.6-1.3-3.9
		c-0.4-1,0-2.2-0.5-3.1c-0.6-1-1.7-1.5-2.4-2.3c-0.7-0.8-0.9-2.1-1.1-3.2c-0.2-0.9-0.3-2.1,0.4-2.8c0.5-0.6,1.4-0.4,2.2-0.4
		c10.2-0.5,20.4-1,30.6-1.4c2.6,0,5.2-0.4,7.8-0.6c8.3-0.6,17.5-2.7,25.5-0.3l0,0c6.8,2.1,12.6,6,18.8,9.2c3.2,1.6,6.4,2.6,9.7,4.2
		c3,1.5,6.1,4,9.3,4.6c-2.1-1.5-4.3-2.6-6.4-3.9c-6.1-3.7-12.4-6.9-18.7-10.6c-3.1-1.8-5.8-4.2-8.9-6.1
		c-12.4-7.5-28.4-8.5-42.1-12.7c-1.7-0.5-3.5-1-5.1-1.7c-0.8-0.5-1.4-1.2-2.1-1.8c-2.7-2.7-5.1-5.7-7.6-8.7
		c-3.4-3.8-4.6-10-9.5-12.5C95-299.6,92.1-300.6,81.8-301.2z"/>
</g>
<path class="eye" fill="#B04143" d="M16.5,74.7
	c0.3-0.1,0.6-0.2,0.9-0.3c0.3,0,0.7,0,1,0.2c0.2,0.1,0.3,0.2,0.5,0.3c0.1,0.2,0.3,0.3,0.3,0.5c0,0.2-0.2,0.3-0.3,0.4
	c-0.2,0.2-0.4,0.5-0.8,0.6c-0.2,0.1-0.4,0.1-0.5,0.1c-0.2,0-0.5-0.1-0.7-0.3c-0.2-0.1-0.4-0.3-0.5-0.5c-0.1-0.2-0.2-0.3-0.3-0.5
	c0-0.1-0.1-0.4-0.1-0.4S16.3,74.7,16.5,74.7z"/>
</svg>
