<svg version="1.1" xmlns="http://www.w3.org/2000/svg" xmlns:xlink="http://www.w3.org/1999/xlink" x="0px" y="0px" viewBox="3 31 197 134.5">
<path fill="#2BB673" d="M155,118.8c-1.7,2.7,10.4,24.6,12.6,26.9c1.9,1.9,2.4,4.3,2.1,6.8c0.2,1.8-0.1,3.5-0.6,5.1
	c-0.5,1.7-1.8,3-3,4.3c-0.4,0.4-0.6,0.2-0.8-0.1c-0.7-0.9-1.2-1.9-1.5-3c-0.1-0.4-0.3-0.8-0.7-0.9c-0.5-0.1-0.6,0.4-0.8,0.7
	c-0.9,1.7-2.2,2.8-4.3,2.5c-0.8-0.1-1.5,0.2-2.3,0.4c-1.1,0.3-2.4-0.1-2.6-0.8c-0.3-0.9,0.5-2.1,1.6-2.5c2.8-1,3.9-2.9,4.3-5.8
	c0.5-4.1-0.1-7.9-1.9-11.6l-3.2-6.5c-1.4-2.7-2.8-5.3-4.1-7.9c-0.5-1-1-1.2-2.1-0.9c-2.9,0.9-5.5,2.3-7.9,4.2
	c-0.7,0.5-0.9,1-0.6,1.8c1.6,4.1,1.9,8.2,1.3,12.5c-0.1,0.7-0.2,1.4,0.2,2c0.2,0.4,0.3,0.8,0.1,1.2c-0.8,1.4-0.9,2.9-0.9,4.5
	c0,0.8-0.4,1.5-1.2,2s-1.3,1.3-1.8,2.2c-0.1,0.3-0.3,0.8-0.5,0.7c-1.9-1.2-1.6,0.9-2.3,1.5c-0.2,0.2-0.3,0.6-0.5,1
	c-0.9-0.4-1.1-1.3-1.4-2.1c-0.2-0.6-0.4-0.9-1.2-0.6c-0.8,0.4-0.9-0.5-1-0.9c-1.1-3.3-1.6-6.7-1.1-10.2c0.5-3.4,0.7-6.9,0.4-10.4
	c-0.1-1.6-0.1-3.2,0.3-4.7c0.6-2.1,2-3.5,3.9-4.5c2.6-1.4,5.1-2.8,7.6-4.3c0.6-0.3,1.2-0.7,1.6-1.2c1.1-1.3,1.5-1.9,0.1-3.4
	c-2.4-2.6-5.4-4.2-8.2-6.3c-1.8-1.4-3.5-2.8-4.8-4.6c-0.8-1.1-1.7-1.2-2.8-1.1c-3.1,0.4-6.3,0.6-9.5,0.5c-7.1-0.2-13.2-2.9-18-8.2
	c-1.4-1.5-2.1-3.6-3.4-5.2c-3-3.5-6.3-6.8-10.2-9.2c-5.4-3.4-10.2-7.3-13.5-12.9c-1.5-2.5-2.1-5.4-3.1-8.1c-1.2-3.1-3.3-4.3-6.5-3.5
	c-3.7,0.9-7.3,2-10.5,4.1c-1,0.6-2.1,1.1-3.2,1.5c-4.5,1.8-7.8,5-10.3,8.9c-2.9,4.4-7,6.5-12.1,7c-1,0.1-2.1-0.1-3-1.1
	c4.1-0.9,6.9-3.2,9.1-6.6c2.4-3.6,5.4-6.8,8.5-9.8c2.7-2.6,4.2-5.8,4.5-9.4c0.2-3.1-2.1-5.2-5.9-5.4c-2.5-0.1-4.9,0.1-7.2,1.4
	c-2.5,1.4-5.4,1.5-8.2,0.9c-4-0.8-7.9-0.6-11.9,0.1c-1.7,0.3-2.7,1.6-3.6,2.9c-1,1.3-1.5,2.9-2.1,4.5C6,53.9,7.2,49.4,9.3,46.7
	c3.9-4.9,9.3-6.7,15.2-7.4c3.7-0.5,7.5-0.7,11-2c2.5-1,5-0.3,7.4-0.6c4.9-0.7,9.7-1.5,14.6-2.3c4-0.6,7.6,0.2,11.1,2.1
	c4.6,2.4,8.6,5.6,11.8,9.8c1.9,2.6,2.8,5.7,4.2,8.5c0.8,1.8,1.7,3.5,2.6,5.2c2.2,4.1,6,6.1,10.2,7.5c2.5,0.8,5.1,1.2,7.8,0.6
	c1-0.2,1.9-0.6,2.7-1.2c5.9-3.6,12.1-5,19-3.5c1.6,0.4,3.2,0.5,4.8,0.8l12.4,2.9c4.9,2.3,10.4,3.4,14.6,7.2c1,0.9,2.2,1.7,3.5,2.3
	c1.9,0.9,2.9,2.7,4.9,4c0,0,16.4,16.1,21.6,26.6c3.8,5.3,10.4,18.1,4.2,10.6c-1.8,0.9-4.7-4.3-6.3-4.6
	C177.6,111.5,160,111,155,118.8z"/>
<path class="eye" fill="#076458" d="M45.2,41.1
	c0.8-0.4,1.5-1.2,2.4-1.5c0.9-0.4,2.1-0.5,3.1-0.4c0.6,0.1,1.2,0.3,1.7,0.6s1.1,0.6,1.3,1.2c0.1,0.5-0.2,1-0.5,1.5
	c-0.4,0.9-0.9,1.8-1.7,2.4c-0.4,0.4-1,0.5-1.6,0.7c-0.7,0.1-1.5,0-2.3-0.2c-0.7-0.2-1.3-0.6-2-1.1c-0.5-0.3-0.9-0.7-1.2-1.1
	c-0.2-0.3-0.7-1-0.7-1S44.8,41.4,45.2,41.1z"/>
</svg>
