<svg version="1.2" baseProfile="tiny" xmlns="http://www.w3.org/2000/svg" xmlns:xlink="http://www.w3.org/1999/xlink" viewBox="3.332 9.833 396.668 351.334">
<g>
	<path fill="#00dd99" d="M401.209,86.568c-14.189,6.115-28.534,12.013-42.565,18.457c-4.684-18.909-23.716-31.776-41.241-37.745
		c-17.183-5.852-28.93-0.443-41.391,11.541c-13.728,13.204-28.801,23.911-47.525,28.966c-26.694,7.204-44.422-23.896-64.928-37.766
		c-27.297-18.464-57.988-26.62-87.021-40.839C67.742,24.78,51.432,13.66,51.432,13.66l-4.869-3.827l-2.732,2.121l1.643,5.885
		L57.93,32.807c22.323,26.168,68.877,52.49,93.833,75.728c0.001,0.002-35.507-20.085-35.507-20.085
		C90.554,79.064,61.243,75.068,37.32,61.703c-4.2-2.347-11.83-10.549-17.174-9.673C4.254,54.636,46.059,88.606,50.936,91.981
		c17.901,12.386,37.537,21.921,55.835,33.667l16.328,13.934c-9.793,3.202-20.272,7.126-30.442,3.113
		c-3.057-1.205-22.926-19.516-18.712-22.056c-0.079,0.048-14.533,8.764-20.299,14.783c-3.98,4.122-4.172,10.063-8.599,13.913
		c-4.035,3.509-10.238,3.95-14.836,6.514c-7.457,4.158-13.032,9.686-18.039,16.482c-14.802,20.093-11.615,54.455,14.137,65.122
		c-0.187-1.653,0.268-3.698,0.072-5.145c4.924,2.017,4.617,6.565,7.514,10.795c20.104,29.353,65.83,27.765,94.802,43.064
		c13.248,6.997,24.596,10.809,39.053,13.518c10.552,1.978,24.236,9.915,32.251,15.658c76.5,31.824,134.5,43.157,201.209,45.824
		L401.209,86.568z"/>
</g>
</svg>
