<svg version="1.1" xmlns="http://www.w3.org/2000/svg" xmlns:xlink="http://www.w3.org/1999/xlink" viewBox="0 30 200 115.5">
<path fill="#1EB9A4" d="M46,116.7c-13.2,6.3-31.5,9.7-43.8,0c17.1-3.9,31.4-9.3,36.7-27.8c6.4-22.6,8.9-38.4,29.4-51.2
	c19.6-12.3,55.4-1.1,64.5,13.5c5.7,3.3,2-6.4,11.8-6c8.2,0.3,15.2,4.7,20.5,15.8c3.7-1,9.8-8.4,12.1-11.5
	c2.3,7.9-10.7,14.8-6.5,20.2c11.6-5.7,20.4-9.1,26-21.2c-1.9,18.3-8.4,18.3-17.9,24.9c-7,4.8,0.5,7.4,1.2,13.7
	c1,8.4,7.3,5.6,13.1,3.5c1.6,5.3-4.5,7.4-3.5,12.4c1.2,5.6-1.5,10.4-6.9,11.3c-6.3,1.1-11.5-3.5-17.7-3.7
	c-7.5-0.3-16.9-0.3-24.2-1.6c-4.4-0.8-5.3,10.4-5.3,12.5c0,5.2,19.2,9.7,5.6,12.4c-12.4-0.1-0.6,8.4-9.5,9.8c-5.8,0.2-10.3-2-13.3-9
	c-0.2-5.7-9.3-3.5-12.9-3.5c-8.8-0.1-12.4-4.4-15.8-12.5c-3.7-8.6-0.7-26-15.2-21.3c-5.2,1.7-7,6.4-10.3,10.1
	c-6.1,6.8,0.7,11.5,4.6,17.3c3.2,4.8-10.4,6.2-12.9,5.6C48.5,128.7,48,122.5,46,116.7C36.7,121.1,46.3,117.7,46,116.7z M105.5,102.6
	c-3.1,4.2-2.3,19.1,5.6,17.7C109.2,114.4,107.3,108.5,105.5,102.6C103.7,105.1,107.3,108.5,105.5,102.6z"/>
<path fill="#0A6559" class="eye" d="M172.9,92.9c-0.9-0.1-1.9-0.1-2.8-0.4c-1-0.4-1.9-1-2.6-1.7c-0.4-0.4-0.7-1-0.9-1.5
	c-0.2-0.6-0.4-1.2-0.2-1.7c0.2-0.4,0.8-0.6,1.3-0.8c0.9-0.4,1.9-0.8,2.9-0.7c0.6,0,1.1,0.2,1.6,0.5c0.6,0.4,1.1,1,1.5,1.6
	s0.6,1.4,0.8,2.1c0.1,0.5,0.2,1.1,0.2,1.7c0,0.4-0.2,1.1-0.2,1.1S173.4,93,172.9,92.9z"/>
</svg>
